<?xml version="1.0" encoding="utf-8"?>
<!-- Generator: Adobe Illustrator 22.1.0, SVG Export Plug-In . SVG Version: 6.00 Build 0)  -->
<svg version="1.2" baseProfile="tiny" id="Ebene_3" xmlns="http://www.w3.org/2000/svg" xmlns:xlink="http://www.w3.org/1999/xlink"
	 x="0px" y="0px" viewBox="0 0 1700.8 1700.8" xml:space="preserve">
<path fill="none" stroke="#FF0000" stroke-miterlimit="10" d="M628.7,976.1c0,0,112.4-7.3,205.3-7.3s199.4,7.3,199.4,7.3
	s19.9,49.3,19.9,122.7s-17.8,123.3-17.8,123.3s-124.1-9.3-205.4-9.3s-205.8,10.2-205.8,10.2s-18-69.9-18-127
	C606.2,1038.7,628.7,976.1,628.7,976.1z"/>
<path fill="none" stroke="#FF0000" stroke-miterlimit="10" d="M994.6,452.7c37.2,2.7,89.6,18.1,114.9,65.1
	c25.3,47,16.3,103.3,3.8,114.4c-12.5,11.1-72.9,54.7-132.7,34.7c-59.8-20-82.3-68.2-87.1-95.1c-4.7-27-8-47.6-2.9-60.5
	c5.1-12.9,11.8-20.3,16.5-28.6c4.6-8.3,6.8-17.7,25-25C950.3,450.4,957.4,450.1,994.6,452.7z"/>
<path fill="none" stroke="#FF0000" stroke-miterlimit="10" d="M672,452.7c-37.2,2.7-89.6,18.1-114.9,65.1
	c-25.3,47-16.3,103.3-3.8,114.4c12.5,11.1,72.9,54.7,132.7,34.7c59.8-20,82.3-68.2,87.1-95.1c4.7-27,8-47.6,2.9-60.5
	c-5.1-12.9-11.8-20.3-16.5-28.6c-4.6-8.3-6.8-17.7-25-25C716.4,450.4,709.2,450.1,672,452.7z"/>
<path fill="none" stroke="#FF0000" stroke-miterlimit="10" d="M686.7,26.9c0,0-63.8-15.6-168.5-15.6s-187.4,26-268.1,106
	S160.7,283,152.5,311l-25.8,59.8c0,0,11.3,27.5,4.7,42c-6.7,14.5-55.3,85.3-55.3,85.3s2,19.2,0,31.2s-7.5,15.2,4.8,25.6
	c12.3,10.4,37.9,53.4,31.1,86.3c-6.8,32.9-47.9,45.9-49.9,55.6c-2,9.7,8,30.4,8,30.4S50.6,745.9,46.3,757s-14.9,41.5-10.9,65.6
	s42.1,92.8,40.1,117.5s-19.6,46-19.8,79.3c-0.2,33.3,14.6,46.8,19.8,47.7c5.3,0.9,44.6,12.9,101.3,4.9s113.3-30,132.3-24
	c19,6,267.9,29.3,234.8,135.3s-86.9,145.2-40.7,202.6s73.4,28.2,140.8,73.8c33.5,22.7,113.5,64.1,193.6,64.2
	c81,0.1,162.3-41.3,196.2-64.2c67.4-45.6,94.6-16.4,140.8-73.8s-7.6-96.6-40.7-202.6c-33.1-106,215.8-129.3,234.8-135.3
	c19-6,75.7,16,132.3,24c56.7,8,96-4,101.3-4.9s20.1-14.4,19.8-47.7c-0.2-33.3-17.8-54.7-19.8-79.3c-2.1-24.7,36.1-93.3,40.1-117.5
	s-6.7-54.5-10.9-65.6c-4.3-11.1-23.7-29.6-23.7-29.6s10-20.7,8-30.4c-2-9.7-43.1-22.7-49.9-55.6c-6.8-32.9,18.7-75.9,31.1-86.3
	c12.3-10.4,6.8-13.6,4.8-25.6s0-31.2,0-31.2s-48.7-70.8-55.3-85.3c-6.7-14.5,4.7-42,4.7-42l-25.8-59.8
	c-8.2-28.1-16.9-113.7-97.6-193.7c-80.7-80-163.3-106-268.1-106S991.1,26.9,991.1,26.9s-84.5-12.9-159.8-12.9S686.7,26.9,686.7,26.9
	z"/>
<path fill="none" stroke="#FF0000" stroke-miterlimit="10" d="M830.1,806.2c0,0,19.7,23.6,45.4,23.6s35.3-29.1,35.3-45.2
	s-22.6-81.7-39.2-102c-16.7-20.3-27.7-40.2-31.6-50.1c-3.9-9.9-3.3-11.1-7.5-14s-13.1,34.1-26.6,53.8
	c-13.5,19.7-52.5,62.8-54.8,103.4c-2.3,40.6,25.5,55.9,37.3,54.7s23.4-2.6,28.9-7.8C822.9,817.5,830.1,806.2,830.1,806.2z"/>
</svg>
