<?xml version="1.0" encoding="utf-8"?>
<!-- Generator: Adobe Illustrator 22.1.0, SVG Export Plug-In . SVG Version: 6.00 Build 0)  -->
<svg version="1.2" baseProfile="tiny" id="Ebene_4" xmlns="http://www.w3.org/2000/svg" xmlns:xlink="http://www.w3.org/1999/xlink"
	 x="0px" y="0px" viewBox="0 0 1700.8 1700.8" xml:space="preserve">
<path fill="none" stroke="#FF0000" stroke-miterlimit="10" d="M628.7,976.1c0,0,112.4-7.3,205.3-7.3s199.4,7.3,199.4,7.3
	s19.9,49.3,19.9,122.7s-17.8,123.3-17.8,123.3s-124.1-9.3-205.4-9.3s-205.8,10.2-205.8,10.2s-18-69.9-18-127
	C606.2,1038.7,628.7,976.1,628.7,976.1z"/>
<path fill="none" stroke="#FF0000" stroke-miterlimit="10" d="M994.6,452.7c37.2,2.7,89.6,18.1,114.9,65.1
	c25.3,47,16.3,103.3,3.8,114.4c-12.5,11.1-72.9,54.7-132.7,34.7c-59.8-20-82.3-68.2-87.1-95.1c-4.7-27-8-47.6-2.9-60.5
	c5.1-12.9,11.8-20.3,16.5-28.6c4.6-8.3,6.8-17.7,25-25C950.3,450.4,957.4,450.1,994.6,452.7z"/>
<path fill="none" stroke="#FF0000" stroke-miterlimit="10" d="M672,452.7c-37.2,2.7-89.6,18.1-114.9,65.1
	c-25.3,47-16.3,103.3-3.8,114.4c12.5,11.1,72.9,54.7,132.7,34.7c59.8-20,82.3-68.2,87.1-95.1c4.7-27,8-47.6,2.9-60.5
	c-5.1-12.9-11.8-20.3-16.5-28.6c-4.6-8.3-6.8-17.7-25-25C716.4,450.4,709.2,450.1,672,452.7z"/>
<path fill="none" stroke="#FF0000" stroke-miterlimit="10" d="M830.1,806.2c0,0,19.7,23.6,45.4,23.6s35.3-29.1,35.3-45.2
	s-22.6-81.7-39.2-102c-16.7-20.3-27.7-40.2-31.6-50.1c-3.9-9.9-3.3-11.1-7.5-14s-13.1,34.1-26.6,53.8
	c-13.5,19.7-52.5,62.8-54.8,103.4c-2.3,40.6,25.5,55.9,37.3,54.7s23.4-2.6,28.9-7.8C822.9,817.5,830.1,806.2,830.1,806.2z"/>
<path fill="none" stroke="#000000" stroke-miterlimit="10" d="M1264,441.1c0,13.7,0,24.8,0,35.9c0,2.1-0.9,4.2-1.2,6.3
	c-0.9,4.8-1.2,9.3-2.4,14c-1.5,7.8-3.3,15.8-5.1,23.3c-3.9,14.6-9.9,28.1-15.8,41.8c-5.4,12-10.8,23.9-18.5,34.7
	c-3.6,5.1-8.1,9.9-12.3,14.6c-2.7,3-3,5.4-1.5,9c6,15.2,14.3,29,22.7,43c6.3,10.2,11.7,20.6,13.4,32.6c1.2,8.7,1.5,17.3-0.9,25.7
	c-1.8,6.3-5.4,12.3-9,18.2c-4.2,6.9-9.6,13.4-14,20.3c-4.2,6.9-7.5,14-9.6,21.8c-2.4,8.7-4.5,17.3-7.2,25.7
	c-5.4,16.4-15.5,28.7-32,35.3c-3.9,1.5-8.1,2.1-12.3,2.4c-4.2,0.3-8.4,0.3-12.6,0c-3.6-0.3-6,1.2-7.8,3.9
	c-5.1,8.1-10.8,15.5-15.2,23.9c-7.2,13.4-12.6,27.8-15.5,43c-1.8,9-3.6,18.2-3.6,27.5c0,11.4-0.3,23,1.2,34.4
	c2.1,14,5.7,287.5,11.4,300.3c3,6.6,6,13.4,8.4,20.3c4.2,12,5.7,24.2,4.2,36.8c-1.2,9.9-6.3,18.2-12.6,25.7
	c-8.7,10.5-19.7,17.3-32.3,21.5c-14.6,5.1-29.6,9.6-43.9,15.2c-9,3.3-17.3,7.5-25.7,12c-20.9,11.1-39.4,25.7-58,40
	c-11.1,8.4-21.8,17.3-32.9,25.4c-8.7,6-17.9,11.1-28.1,14.3c-10.5,3.3-21.2,6.6-32.3,7.5c-0.6,0-1.2,0.3-1.5,0.3
	c-6.6,3-13.4,2.4-20.3,2.4c-11.1,0-22.4,0-33.5,0c-2.4,0-4.8,0-6.6-1.5c-0.9-0.6-2.1-0.9-3-1.2c-5.4-1.2-10.8-2.4-15.8-3.6
	c-15.8-4.2-30.5-11.1-43.6-20.9c-12-9.3-23.9-18.5-35.9-28.1c-17-13.7-35-26.3-54.4-36.5c-11.7-6-23.6-10.5-35.9-14.3
	c-15.2-4.8-30.8-9.3-44.5-17.6c-6.3-3.9-12.3-8.7-17.6-13.7c-7.8-7.5-11.1-17.3-12.8-27.8c-1.2-7.2-0.3-14,0.9-21.2
	c1.8-11.4,6.3-22.1,10.8-32.6c2.7-6.3,5.7-12.6,7.5-19.4c2.4-8.7,3.9-277.3,5.1-286.3c0.9-6.9,1.5-14,1.8-21.2
	c0.3-3-0.6-5.7-0.9-8.7c-1.5-21.5-6-42.4-14.9-62.5c-5.4-11.7-11.7-22.7-19.4-32.9c-2.4-3.3-5.1-4.8-9.3-4.8c-8.4,0.3-16.4,0-24.2-3
	c-10.8-4.2-19.4-10.8-25.1-20.9c-3.6-6.3-6-12.8-8.1-19.7c-3-10.2-6.3-20.3-9.6-30.2c-2.4-6.9-6-12.8-10.2-18.5
	c-5.1-6.9-10.5-14-14.9-21.5c-3.3-5.4-4.8-11.7-5.4-18.2C421,696,427,681,435.1,666.7c4.8-8.4,9.9-16.7,14.3-25.4
	c3.3-6.3,6-12.8,9-19.4c1.8-4.5,1.5-8.4-2.4-12.3c-11.1-10.8-19.4-23.9-25.4-37.9c-6.3-14.6-12.8-29-17.6-44.2
	c-4.8-14.6-8.7-29.9-9.3-45.4c-0.3-3.6-1.5-7.2-2.1-10.8c-0.3-1.8-0.6-3.6-0.6-5.4c0-14.3,0-28.4,0-42.7c0-3,1.5-6,1.8-9
	c0.6-5.1,1.2-10.2,1.8-15.2c2.7-20.3,6.9-40.6,13.4-60.1c5.1-14.9,10.2-30.2,16.4-44.5c9-20.9,19.7-41.2,31.7-60.4
	c13.1-20.6,26.9-40.9,41.8-60.4c13.1-17.3,27.5-33.8,43.6-48.4c13.4-12,28.4-22.4,43.9-31.4c13.4-7.8,27.5-14,41.8-20
	c8.1-3.6,16.7-6,25.1-9c9.9-3.3,19.7-6.9,29.6-9.9c15.5-4.5,31.1-8.4,46.6-12.3c5.7-1.5,11.4-2.7,17-3.9c8.7-1.8,17.3-3.9,26.3-5.4
	c5.1-0.9,10.2-1.2,15.2-2.1c3-0.3,6-0.3,8.7-1.2c3.9-1.5,7.5-1.5,11.4-1.5c9.6,0,19.1,0,28.4,0c4.5,0,9,0.3,13.4,1.5
	c4.8,1.2,10.2,1.2,15.2,1.8c18.2,2.4,36.2,6.3,54.1,10.8c15.8,3.9,31.7,7.8,47.2,12.3c12.6,3.6,24.8,8.4,37.4,12.6
	c8.4,3,16.4,5.7,24.5,9.3c7.8,3.3,15.8,6.9,23.3,11.1c11.7,6.6,23.3,13.4,34.7,20.9c17.9,12,32.3,28.1,46.3,43.9
	c14.9,16.4,27.8,34.4,40.6,52.3c6,8.4,11.4,17.3,17,26c10.8,16.7,20,34.4,28.7,52.3c5.7,12.3,10.8,24.8,15.5,37.4
	c3.6,9.6,6.9,19.7,9.9,29.6c2.1,6.9,3.9,14,5.1,21.2c1.8,8.7,1.8,17.6,4.2,25.7C1266.1,413.3,1262.5,428.5,1264,441.1z"/>
</svg>
